# xmcd
#
# Track frame offsets:
#	150
#	15726
#	34946
#	55854
#	71288
#	91641
#	109205
#	129244
#	151606
#	165161
#	183646
#
# Disc length: 2635 seconds
#
# Revision: 0
# Processed by: cddbd v1.5.1PL2 Copyright (c) Steve Scherf et al.
# Submitted via: EasyCDDAExtractor 9.0.0.1
#
DISCID=790a490b
DTITLE=Jason Savory
DYEAR=2006
DGENRE=Country
TTITLE0=Those Days Are Gone
TTITLE1=Nothing More Than Me
TTITLE2=My Mind's Down In Mexico
TTITLE3=Those Kind Of Places
TTITLE4=The Woman Of My Dreams
TTITLE5=First Date
TTITLE6=Every Rose Has Its Thorn
TTITLE7=Let A Good Thing Ride
TTITLE8=Wife For A Night
TTITLE9=Show Me The Way
TTITLE10=Brotherly Love
EXTD=
EXTT0=
EXTT1=
EXTT2=
EXTT3=
EXTT4=
EXTT5=
EXTT6=
EXTT7=
EXTT8=
EXTT9=
EXTT10=
PLAYORDER=
